CrispyWide Black-MinGrade-shadow.ufo
<glyph name="exclam" format="2">
  <advance width="1282"/>
  <unicode hex="0021"/>
  <outline>
    <contour>
      <point x="1303" y="112" type="line"/>
      <point x="1303" y="536" type="line"/>
      <point x="1026" y="536" type="line"/>
      <point x="1120" y="631" type="line"/>
      <point x="1211" y="745" type="line"/>
      <point x="1211" y="1602" type="line"/>
      <point x="329" y="1602" type="line"/>
      <point x="178" y="1451" type="line"/>
      <point x="88" y="1305" type="line"/>
      <point x="88" y="480" type="line"/>
      <point x="397" y="480" type="line"/>
      <point x="336" y="422" type="line"/>
      <point x="336" y="-2" type="line"/>
      <point x="1184" y="-2" type="line"/>
    </contour>
    <contour>
      <point x="455" y="536" type="line"/>
      <point x="401" y="484" type="line"/>
      <point x="92" y="484" type="line"/>
      <point x="92" y="1303" type="line"/>
      <point x="182" y="1449" type="line"/>
      <point x="331" y="1598" type="line"/>
      <point x="1207" y="1598" type="line"/>
      <point x="1207" y="747" type="line"/>
      <point x="1118" y="633" type="line"/>
      <point x="1020" y="536" type="line"/>
    </contour>
    <contour>
      <point x="407" y="484" type="line"/>
      <point x="457" y="532" type="line"/>
      <point x="1016" y="532" type="line"/>
      <point x="968" y="484" type="line"/>
    </contour>
    <contour>
      <point x="970" y="480" type="line"/>
      <point x="1022" y="532" type="line"/>
      <point x="1299" y="532" type="line"/>
      <point x="1299" y="114" type="line"/>
      <point x="1182" y="2" type="line"/>
      <point x="340" y="2" type="line"/>
      <point x="340" y="420" type="line"/>
      <point x="403" y="480" type="line"/>
    </contour>
    <component base="period" xOffset="95"/>
    <component base="period" xOffset="95"/>
    <component base="period" xOffset="95"/>
    <component base="period" xOffset="95"/>
  </outline>
</glyph>
<glyph name="comma" format="2">
  <advance width="1828"/>
  <unicode hex="002C"/>
  <outline>
    <contour>
      <point x="1825" y="538" type="line"/>
      <point x="1056" y="538" type="line"/>
      <point x="906" y="387" type="line"/>
      <point x="761" y="208" type="line"/>
      <point x="761" y="-152" type="line"/>
      <point x="1163" y="-152" type="line"/>
      <point x="1163" y="-507" type="line"/>
      <point x="1236" y="-507" type="line"/>
      <point x="1674" y="-150" type="line"/>
      <point x="1825" y="0" type="line"/>
    </contour>
    <contour>
      <point x="1167" y="-148" type="line"/>
      <point x="765" y="-148" type="line"/>
      <point x="765" y="206" type="line"/>
      <point x="908" y="385" type="line"/>
      <point x="1058" y="534" type="line"/>
      <point x="1821" y="534" type="line"/>
      <point x="1821" y="2" type="line"/>
      <point x="1672" y="-148" type="line"/>
      <point x="1234" y="-503" type="line"/>
      <point x="1167" y="-503" type="line"/>
    </contour>
  </outline>
</glyph>
<glyph name="period" format="2">
  <advance width="1217"/>
  <unicode hex="002E"/>
  <outline>
    <contour>
      <point x="242" y="422" type="line"/>
      <point x="242" y="422" type="line"/>
      <point x="91" y="272" type="line"/>
      <point x="91" y="-152" type="line"/>
      <point x="939" y="-152" type="line"/>
      <point x="1057" y="-38" type="line"/>
      <point x="1057" y="-38" type="line"/>
      <point x="1057" y="-38" type="line"/>
      <point x="1208" y="112" type="line"/>
      <point x="1208" y="536" type="line"/>
      <point x="360" y="536" type="line"/>
    </contour>
    <contour>
      <point x="95" y="-148" type="line"/>
      <point x="95" y="270" type="line"/>
      <point x="244" y="420" type="line"/>
      <point x="362" y="532" type="line"/>
      <point x="1204" y="532" type="line"/>
      <point x="1204" y="114" type="line"/>
      <point x="1055" y="-36" type="line"/>
      <point x="937" y="-148" type="line"/>
    </contour>
  </outline>
</glyph>
<glyph name="one" format="2">
  <advance width="4463"/>
  <unicode hex="0031"/>
  <outline>
    <contour>
      <point x="4455" y="-1" type="line"/>
      <point x="4455" y="532" type="line"/>
      <point x="2818" y="532" type="line"/>
      <point x="2818" y="1602" type="line"/>
      <point x="259" y="1602" type="line"/>
      <point x="108" y="1451" type="line"/>
      <point x="108" y="918" type="line"/>
      <point x="1755" y="918" type="line"/>
      <point x="1755" y="532" type="line"/>
      <point x="181" y="532" type="line"/>
      <point x="30" y="381" type="line"/>
      <point x="30" y="-152" type="line"/>
      <point x="4304" y="-152" type="line"/>
    </contour>
    <contour>
      <point x="1759" y="528" type="line"/>
      <point x="1759" y="922" type="line"/>
      <point x="112" y="922" type="line"/>
      <point x="112" y="1449" type="line"/>
      <point x="261" y="1598" type="line"/>
      <point x="2814" y="1598" type="line"/>
      <point x="2814" y="528" type="line"/>
      <point x="4451" y="528" type="line"/>
      <point x="4451" y="1" type="line"/>
      <point x="4302" y="-148" type="line"/>
      <point x="34" y="-148" type="line"/>
      <point x="34" y="379" type="line"/>
      <point x="183" y="528" type="line"/>
    </contour>
  </outline>
</glyph>
<glyph name="three" format="2">
  <advance width="5147"/>
  <unicode hex="0033"/>
  <outline>
    <contour>
      <point x="1105" y="712" type="line"/>
      <point x="192" y="712" type="line"/>
      <point x="41" y="561" type="line"/>
      <point x="41" y="-152" type="line"/>
      <point x="5004" y="-152" type="line"/>
      <point x="5155" y="-1" type="line"/>
      <point x="5155" y="1018" type="line"/>
      <point x="4927" y="1018" type="line"/>
      <point x="4927" y="1602" type="line"/>
      <point x="151" y="1602" type="line"/>
      <point x="0" y="1451" type="line"/>
      <point x="0" y="742" type="line"/>
      <point x="913" y="742" type="line"/>
      <point x="1064" y="893" type="line"/>
      <point x="1064" y="958" type="line"/>
      <point x="1617" y="958" type="line"/>
      <point x="1526" y="867" type="line"/>
      <point x="1526" y="492" type="line"/>
      <point x="1105" y="492" type="line"/>
    </contour>
    <contour>
      <point x="1627" y="962" type="line"/>
      <point x="1060" y="962" type="line"/>
      <point x="1060" y="895" type="line"/>
      <point x="911" y="746" type="line"/>
      <point x="4" y="746" type="line"/>
      <point x="4" y="1449" type="line"/>
      <point x="153" y="1598" type="line"/>
      <point x="4923" y="1598" type="line"/>
      <point x="4923" y="1014" type="line"/>
      <point x="5151" y="1014" type="line"/>
      <point x="5151" y="1" type="line"/>
      <point x="5002" y="-148" type="line"/>
      <point x="45" y="-148" type="line"/>
      <point x="45" y="559" type="line"/>
      <point x="194" y="708" type="line"/>
      <point x="1101" y="708" type="line"/>
      <point x="1101" y="488" type="line"/>
      <point x="1530" y="488" type="line"/>
      <point x="1530" y="865" type="line"/>
    </contour>
  </outline>
</glyph>
<glyph name="four" format="2">
  <advance width="4966"/>
  <unicode hex="0034"/>
  <outline>
    <contour>
      <point x="4944" y="1012" type="line"/>
      <point x="4676" y="1012" type="line"/>
      <point x="4676" y="1602" type="line"/>
      <point x="3764" y="1602" type="line"/>
      <point x="3613" y="1451" type="line"/>
      <point x="3613" y="1012" type="line"/>
      <point x="1103" y="1012" type="line"/>
      <point x="1103" y="1076" type="line"/>
      <point x="1105" y="1537" type="line"/>
      <point x="193" y="1537" type="line"/>
      <point x="42" y="1386" type="line"/>
      <point x="42" y="329" type="line"/>
      <point x="3613" y="329" type="line"/>
      <point x="3613" y="-152" type="line"/>
      <point x="4525" y="-152" type="line"/>
      <point x="4676" y="-1" type="line"/>
      <point x="4676" y="329" type="line"/>
      <point x="4793" y="329" type="line"/>
      <point x="4944" y="480" type="line"/>
    </contour>
    <contour>
      <point x="1099" y="1076" type="line"/>
      <point x="1099" y="1008" type="line"/>
      <point x="3617" y="1008" type="line"/>
      <point x="3617" y="1449" type="line"/>
      <point x="3766" y="1598" type="line"/>
      <point x="4672" y="1598" type="line"/>
      <point x="4672" y="1008" type="line"/>
      <point x="4940" y="1008" type="line"/>
      <point x="4940" y="482" type="line"/>
      <point x="4791" y="333" type="line"/>
      <point x="4672" y="333" type="line"/>
      <point x="4672" y="1" type="line"/>
      <point x="4523" y="-148" type="line"/>
      <point x="3617" y="-148" type="line"/>
      <point x="3617" y="333" type="line"/>
      <point x="46" y="333" type="line"/>
      <point x="46" y="1384" type="line"/>
      <point x="195" y="1533" type="line"/>
      <point x="1101" y="1533" type="line"/>
      <point x="1099" y="1076" type="line"/>
      <point x="1099" y="1076" type="line"/>
    </contour>
  </outline>
</glyph>
<glyph name="five" format="2">
  <advance width="4987"/>
  <unicode hex="0035"/>
  <outline>
    <contour>
      <point x="4967" y="1602" type="line"/>
      <point x="191" y="1602" type="line"/>
      <point x="40" y="1451" type="line"/>
      <point x="40" y="434" type="line"/>
      <point x="73" y="434" type="line"/>
      <point x="41" y="402" type="line"/>
      <point x="41" y="-152" type="line"/>
      <point x="4817" y="-152" type="line"/>
      <point x="4968" y="-1" type="line"/>
      <point x="4968" y="1024" type="line"/>
      <point x="4882" y="1024" type="line"/>
      <point x="4967" y="1109" type="line"/>
    </contour>
    <contour>
      <point x="83" y="438" type="line"/>
      <point x="44" y="438" type="line"/>
      <point x="44" y="1449" type="line"/>
      <point x="193" y="1598" type="line"/>
      <point x="4963" y="1598" type="line"/>
      <point x="4963" y="1111" type="line"/>
      <point x="4872" y="1020" type="line"/>
      <point x="4964" y="1020" type="line"/>
      <point x="4964" y="1" type="line"/>
      <point x="4815" y="-148" type="line"/>
      <point x="45" y="-148" type="line"/>
      <point x="45" y="400" type="line"/>
    </contour>
  </outline>
</glyph>
<glyph name="seven" format="2">
  <advance width="5017"/>
  <unicode hex="0037"/>
  <outline>
    <contour>
      <point x="952" y="565" type="line"/>
      <point x="1103" y="716" type="line"/>
      <point x="1103" y="918" type="line"/>
      <point x="3666" y="918" type="line"/>
      <point x="1913" y="2" type="line"/>
      <point x="1759" y="-152" type="line"/>
      <point x="2760" y="-152" type="line"/>
      <point x="4847" y="845" type="line"/>
      <point x="4998" y="996" type="line"/>
      <point x="4998" y="1602" type="line"/>
      <point x="191" y="1602" type="line"/>
      <point x="40" y="1451" type="line"/>
      <point x="40" y="565" type="line"/>
    </contour>
    <contour>
      <point x="3682" y="922" type="line"/>
      <point x="1099" y="922" type="line"/>
      <point x="1099" y="718" type="line"/>
      <point x="950" y="569" type="line"/>
      <point x="44" y="569" type="line"/>
      <point x="44" y="1449" type="line"/>
      <point x="193" y="1598" type="line"/>
      <point x="4994" y="1598" type="line"/>
      <point x="4994" y="998" type="line"/>
      <point x="4845" y="849" type="line"/>
      <point x="2760" y="-148" type="line"/>
      <point x="1769" y="-148" type="line"/>
      <point x="1915" y="-2" type="line"/>
    </contour>
  </outline>
</glyph>
<glyph name="nine" format="2">
  <advance width="5053"/>
  <unicode hex="0039"/>
  <outline>
    <contour>
      <point x="5034" y="1605" type="line"/>
      <point x="162" y="1605" type="line"/>
      <point x="11" y="1454" type="line"/>
      <point x="11" y="414" type="line"/>
      <point x="33" y="414" type="line"/>
      <point x="12" y="393" type="line"/>
      <point x="12" y="-149" type="line"/>
      <point x="4883" y="-149" type="line"/>
      <point x="5034" y="2" type="line"/>
    </contour>
    <contour>
      <point x="43" y="418" type="line"/>
      <point x="15" y="418" type="line"/>
      <point x="15" y="1452" type="line"/>
      <point x="164" y="1601" type="line"/>
      <point x="5030" y="1601" type="line"/>
      <point x="5030" y="4" type="line"/>
      <point x="4881" y="-145" type="line"/>
      <point x="16" y="-145" type="line"/>
      <point x="16" y="391" type="line"/>
    </contour>
  </outline>
</glyph>
<glyph name="A" format="2">
  <advance width="5127"/>
  <unicode hex="0041"/>
  <outline>
    <contour>
      <point x="919" y="-152" type="line"/>
      <point x="1070" y="-1" type="line"/>
      <point x="1070" y="125" type="line"/>
      <point x="3921" y="125" type="line"/>
      <point x="3921" y="-152" type="line"/>
      <point x="4834" y="-152" type="line"/>
      <point x="4985" y="-1" type="line"/>
      <point x="4985" y="1602" type="line"/>
      <point x="665" y="1602" type="line"/>
      <point x="159" y="1097" type="line"/>
      <point x="8" y="947" type="line"/>
      <point x="8" y="-152" type="line"/>
    </contour>
    <contour>
      <point x="161" y="1095" type="line"/>
      <point x="667" y="1598" type="line"/>
      <point x="4981" y="1598" type="line"/>
      <point x="4981" y="1" type="line"/>
      <point x="4832" y="-148" type="line"/>
      <point x="3925" y="-148" type="line"/>
      <point x="3925" y="129" type="line"/>
      <point x="1066" y="129" type="line"/>
      <point x="1066" y="1" type="line"/>
      <point x="917" y="-148" type="line"/>
      <point x="12" y="-148" type="line"/>
      <point x="12" y="945" type="line"/>
    </contour>
    <contour>
      <point x="3925" y="805" type="line"/>
      <point x="3925" y="922" type="line"/>
      <point x="1070" y="922" type="line"/>
      <point x="1066" y="918" type="line"/>
      <point x="1066" y="805" type="line"/>
    </contour>
    <contour>
      <point x="1070" y="809" type="line"/>
      <point x="1070" y="916" type="line"/>
      <point x="1072" y="918" type="line"/>
      <point x="3921" y="918" type="line"/>
      <point x="3921" y="809" type="line"/>
    </contour>
  </outline>
</glyph>
<glyph name="D" format="2">
  <advance width="5199"/>
  <unicode hex="0044"/>
  <outline>
    <contour>
      <point x="5211" y="1602" type="line"/>
      <point x="313" y="1602" type="line"/>
      <point x="162" y="1451" type="line"/>
      <point x="162" y="-152" type="line"/>
      <point x="4556" y="-152" type="line"/>
      <point x="5060" y="340" type="line"/>
      <point x="5060" y="340" type="line"/>
      <point x="5060" y="340" type="line"/>
      <point x="5211" y="490" type="line"/>
    </contour>
    <contour>
      <point x="166" y="-148" type="line"/>
      <point x="166" y="1449" type="line"/>
      <point x="315" y="1598" type="line"/>
      <point x="5207" y="1598" type="line"/>
      <point x="5207" y="492" type="line"/>
      <point x="5058" y="342" type="line"/>
      <point x="4554" y="-148" type="line"/>
    </contour>
    <contour>
      <point x="4152" y="607" type="line"/>
      <point x="4152" y="922" type="line"/>
      <point x="1221" y="922" type="line"/>
      <point x="1221" y="527" type="line"/>
      <point x="4039" y="527" type="line"/>
    </contour>
    <contour>
      <point x="1225" y="531" type="line"/>
      <point x="1225" y="918" type="line"/>
      <point x="4148" y="918" type="line"/>
      <point x="4148" y="609" type="line"/>
      <point x="4037" y="531" type="line"/>
    </contour>
  </outline>
</glyph>
<glyph name="E" format="2">
  <advance width="5026"/>
  <unicode hex="0045"/>
  <outline>
    <contour>
      <point x="5006" y="1602" type="line"/>
      <point x="315" y="1602" type="line"/>
      <point x="164" y="1451" type="line"/>
      <point x="164" y="-152" type="line"/>
      <point x="4856" y="-152" type="line"/>
      <point x="5007" y="-1" type="line"/>
      <point x="5007" y="676" type="line"/>
      <point x="4098" y="676" type="line"/>
      <point x="3947" y="525" type="line"/>
      <point x="3947" y="492" type="line"/>
      <point x="3397" y="492" type="line"/>
      <point x="3459" y="554" type="line"/>
      <point x="3459" y="958" type="line"/>
      <point x="3946" y="958" type="line"/>
      <point x="3946" y="747" type="line"/>
      <point x="4855" y="747" type="line"/>
      <point x="5006" y="898" type="line"/>
    </contour>
    <contour>
      <point x="3950" y="962" type="line"/>
      <point x="3455" y="962" type="line"/>
      <point x="3455" y="556" type="line"/>
      <point x="3387" y="488" type="line"/>
      <point x="3951" y="488" type="line"/>
      <point x="3951" y="523" type="line"/>
      <point x="4100" y="672" type="line"/>
      <point x="5003" y="672" type="line"/>
      <point x="5003" y="1" type="line"/>
      <point x="4854" y="-148" type="line"/>
      <point x="168" y="-148" type="line"/>
      <point x="168" y="1449" type="line"/>
      <point x="317" y="1598" type="line"/>
      <point x="5002" y="1598" type="line"/>
      <point x="5002" y="900" type="line"/>
      <point x="4853" y="751" type="line"/>
      <point x="3950" y="751" type="line"/>
    </contour>
  </outline>
</glyph>
<glyph name="F" format="2">
  <advance width="5021"/>
  <unicode hex="0046"/>
  <outline>
    <contour>
      <point x="1075" y="-152" type="line"/>
      <point x="1226" y="-1" type="line"/>
      <point x="1226" y="199" type="line"/>
      <point x="3167" y="199" type="line"/>
      <point x="3318" y="350" type="line"/>
      <point x="3318" y="882" type="line"/>
      <point x="1226" y="882" type="line"/>
      <point x="1226" y="918" type="line"/>
      <point x="3941" y="918" type="line"/>
      <point x="3941" y="646" type="line"/>
      <point x="4854" y="646" type="line"/>
      <point x="5005" y="797" type="line"/>
      <point x="5005" y="1602" type="line"/>
      <point x="314" y="1602" type="line"/>
      <point x="163" y="1451" type="line"/>
      <point x="163" y="-152" type="line"/>
    </contour>
    <contour>
      <point x="3945" y="922" type="line"/>
      <point x="1222" y="922" type="line"/>
      <point x="1222" y="878" type="line"/>
      <point x="3314" y="878" type="line"/>
      <point x="3314" y="352" type="line"/>
      <point x="3165" y="203" type="line"/>
      <point x="1222" y="203" type="line"/>
      <point x="1222" y="1" type="line"/>
      <point x="1073" y="-148" type="line"/>
      <point x="167" y="-148" type="line"/>
      <point x="167" y="1449" type="line"/>
      <point x="316" y="1598" type="line"/>
      <point x="5001" y="1598" type="line"/>
      <point x="5001" y="799" type="line"/>
      <point x="4852" y="650" type="line"/>
      <point x="3945" y="650" type="line"/>
    </contour>
  </outline>
</glyph>
<glyph name="H" format="2">
  <advance width="5390"/>
  <unicode hex="0048"/>
  <outline>
    <contour>
      <point x="1075" y="-152" type="line"/>
      <point x="1226" y="-1" type="line"/>
      <point x="1226" y="382" type="line"/>
      <point x="4182" y="382" type="line"/>
      <point x="4182" y="-152" type="line"/>
      <point x="5095" y="-152" type="line"/>
      <point x="5246" y="-1" type="line"/>
      <point x="5246" y="1602" type="line"/>
      <point x="4333" y="1602" type="line"/>
      <point x="4182" y="1451" type="line"/>
      <point x="4182" y="1066" type="line"/>
      <point x="1226" y="1066" type="line"/>
      <point x="1226" y="1602" type="line"/>
      <point x="314" y="1602" type="line"/>
      <point x="163" y="1451" type="line"/>
      <point x="163" y="-152" type="line"/>
    </contour>
    <contour>
      <point x="4186" y="386" type="line"/>
      <point x="1222" y="386" type="line"/>
      <point x="1222" y="1" type="line"/>
      <point x="1073" y="-148" type="line"/>
      <point x="167" y="-148" type="line"/>
      <point x="167" y="1449" type="line"/>
      <point x="316" y="1598" type="line"/>
      <point x="1222" y="1598" type="line"/>
      <point x="1222" y="1062" type="line"/>
      <point x="4186" y="1062" type="line"/>
      <point x="4186" y="1449" type="line"/>
      <point x="4335" y="1598" type="line"/>
      <point x="5242" y="1598" type="line"/>
      <point x="5242" y="1" type="line"/>
      <point x="5093" y="-148" type="line"/>
      <point x="4186" y="-148" type="line"/>
    </contour>
  </outline>
</glyph>
<glyph name="I" format="2">
  <advance width="4558"/>
  <unicode hex="0049"/>
  <outline>
    <contour>
      <point x="4542" y="-1" type="line"/>
      <point x="4542" y="532" type="line"/>
      <point x="2817" y="532" type="line"/>
      <point x="2817" y="918" type="line"/>
      <point x="4391" y="918" type="line"/>
      <point x="4542" y="1069" type="line"/>
      <point x="4542" y="1602" type="line"/>
      <point x="188" y="1602" type="line"/>
      <point x="37" y="1451" type="line"/>
      <point x="37" y="918" type="line"/>
      <point x="1754" y="918" type="line"/>
      <point x="1754" y="532" type="line"/>
      <point x="188" y="532" type="line"/>
      <point x="37" y="381" type="line"/>
      <point x="37" y="-152" type="line"/>
      <point x="4391" y="-152" type="line"/>
    </contour>
    <contour>
      <point x="2813" y="922" type="line"/>
      <point x="2813" y="528" type="line"/>
      <point x="4538" y="528" type="line"/>
      <point x="4538" y="1" type="line"/>
      <point x="4389" y="-148" type="line"/>
      <point x="41" y="-148" type="line"/>
      <point x="41" y="379" type="line"/>
      <point x="190" y="528" type="line"/>
      <point x="1758" y="528" type="line"/>
      <point x="1758" y="922" type="line"/>
      <point x="41" y="922" type="line"/>
      <point x="41" y="1449" type="line"/>
      <point x="190" y="1598" type="line"/>
      <point x="4538" y="1598" type="line"/>
      <point x="4538" y="1071" type="line"/>
      <point x="4389" y="922" type="line"/>
    </contour>
  </outline>
</glyph>
<glyph name="K" format="2">
  <advance width="4863"/>
  <unicode hex="004B"/>
  <outline>
    <contour>
      <point x="4872" y="982" type="line"/>
      <point x="4348" y="982" type="line"/>
      <point x="4678" y="1602" type="line"/>
      <point x="3748" y="1602" type="line"/>
      <point x="3597" y="1451" type="line"/>
      <point x="3352" y="976" type="line"/>
      <point x="1223" y="976" type="line"/>
      <point x="1223" y="1602" type="line"/>
      <point x="311" y="1602" type="line"/>
      <point x="160" y="1451" type="line"/>
      <point x="160" y="-152" type="line"/>
      <point x="1072" y="-152" type="line"/>
      <point x="1223" y="-1" type="line"/>
      <point x="1223" y="293" type="line"/>
      <point x="3809" y="293" type="line"/>
      <point x="3809" y="-152" type="line"/>
      <point x="4721" y="-152" type="line"/>
      <point x="4872" y="-1" type="line"/>
    </contour>
    <contour>
      <point x="4342" y="978" type="line"/>
      <point x="4868" y="978" type="line"/>
      <point x="4868" y="1" type="line"/>
      <point x="4719" y="-148" type="line"/>
      <point x="3813" y="-148" type="line"/>
      <point x="3813" y="297" type="line"/>
      <point x="1219" y="297" type="line"/>
      <point x="1219" y="1" type="line"/>
      <point x="1070" y="-148" type="line"/>
      <point x="164" y="-148" type="line"/>
      <point x="164" y="1449" type="line"/>
      <point x="313" y="1598" type="line"/>
      <point x="1219" y="1598" type="line"/>
      <point x="1219" y="972" type="line"/>
      <point x="3354" y="972" type="line"/>
      <point x="3601" y="1449" type="line"/>
      <point x="3750" y="1598" type="line"/>
      <point x="4672" y="1598" type="line"/>
    </contour>
  </outline>
</glyph>
<glyph name="P" format="2">
  <advance width="5055"/>
  <unicode hex="0050"/>
  <outline>
    <contour>
      <point x="1076" y="-152" type="line"/>
      <point x="1227" y="-1" type="line"/>
      <point x="1227" y="106" type="line"/>
      <point x="4886" y="106" type="line"/>
      <point x="5037" y="257" type="line"/>
      <point x="5037" y="1602" type="line"/>
      <point x="315" y="1602" type="line"/>
      <point x="164" y="1451" type="line"/>
      <point x="164" y="-152" type="line"/>
    </contour>
    <contour>
      <point x="1223" y="110" type="line"/>
      <point x="1223" y="1" type="line"/>
      <point x="1074" y="-148" type="line"/>
      <point x="168" y="-148" type="line"/>
      <point x="168" y="1449" type="line"/>
      <point x="317" y="1598" type="line"/>
      <point x="5033" y="1598" type="line"/>
      <point x="5033" y="259" type="line"/>
      <point x="4884" y="110" type="line"/>
    </contour>
    <contour>
      <point x="3978" y="785" type="line"/>
      <point x="3978" y="922" type="line"/>
      <point x="1223" y="922" type="line"/>
      <point x="1223" y="785" type="line"/>
    </contour>
    <contour>
      <point x="1227" y="789" type="line"/>
      <point x="1227" y="918" type="line"/>
      <point x="3974" y="918" type="line"/>
      <point x="3974" y="789" type="line"/>
    </contour>
  </outline>
</glyph>
<glyph name="Q" format="2">
  <advance width="5340"/>
  <unicode hex="0051"/>
  <outline>
    <contour>
      <point x="495" y="1451" type="line"/>
      <point x="495" y="1451" type="line"/>
      <point x="495" y="1451" type="line"/>
      <point x="9" y="921" type="line"/>
      <point x="9" y="920" type="line"/>
      <point x="8" y="920" type="line"/>
      <point x="8" y="-150" type="line"/>
      <point x="2155" y="-150" type="line"/>
      <point x="2155" y="-310" type="line"/>
      <point x="2974" y="-310" type="line"/>
      <point x="3125" y="-159" type="line"/>
      <point x="3125" y="-150" type="line"/>
      <point x="5047" y="-150" type="line"/>
      <point x="5198" y="1" type="line"/>
      <point x="5198" y="1602" type="line"/>
      <point x="645" y="1602" type="line"/>
    </contour>
    <contour>
      <point x="2159" y="-146" type="line"/>
      <point x="12" y="-146" type="line"/>
      <point x="12" y="918" type="line"/>
      <point x="497" y="1449" type="line"/>
      <point x="647" y="1598" type="line"/>
      <point x="5194" y="1598" type="line"/>
      <point x="5194" y="3" type="line"/>
      <point x="5045" y="-146" type="line"/>
      <point x="3121" y="-146" type="line"/>
      <point x="3121" y="-157" type="line"/>
      <point x="2972" y="-306" type="line"/>
      <point x="2159" y="-306" type="line"/>
    </contour>
    <contour>
      <point x="4139" y="529" type="line"/>
      <point x="4139" y="922" type="line"/>
      <point x="1109" y="922" type="line"/>
      <point x="1067" y="876" type="line"/>
      <point x="1067" y="529" type="line"/>
    </contour>
    <contour>
      <point x="1071" y="533" type="line"/>
      <point x="1071" y="874" type="line"/>
      <point x="1111" y="918" type="line"/>
      <point x="4135" y="918" type="line"/>
      <point x="4135" y="533" type="line"/>
    </contour>
  </outline>
</glyph>
<glyph name="R" format="2">
  <advance width="5021"/>
  <unicode hex="0052"/>
  <outline>
    <contour>
      <point x="1075" y="-154" type="line"/>
      <point x="1226" y="-3" type="line"/>
      <point x="1226" y="101" type="line"/>
      <point x="3388" y="101" type="line"/>
      <point x="3804" y="10" type="line"/>
      <point x="3804" y="-152" type="line"/>
      <point x="4716" y="-152" type="line"/>
      <point x="4867" y="-1" type="line"/>
      <point x="4867" y="101" type="line"/>
      <point x="4881" y="101" type="line"/>
      <point x="5032" y="252" type="line"/>
      <point x="5032" y="1600" type="line"/>
      <point x="314" y="1600" type="line"/>
      <point x="163" y="1449" type="line"/>
      <point x="163" y="-154" type="line"/>
    </contour>
    <contour>
      <point x="4863" y="105" type="line"/>
      <point x="4863" y="1" type="line"/>
      <point x="4714" y="-148" type="line"/>
      <point x="3808" y="-148" type="line"/>
      <point x="3808" y="14" type="line"/>
      <point x="3388" y="105" type="line"/>
      <point x="1222" y="105" type="line"/>
      <point x="1222" y="-1" type="line"/>
      <point x="1073" y="-150" type="line"/>
      <point x="167" y="-150" type="line"/>
      <point x="167" y="1447" type="line"/>
      <point x="316" y="1596" type="line"/>
      <point x="5028" y="1596" type="line"/>
      <point x="5028" y="254" type="line"/>
      <point x="4879" y="105" type="line"/>
    </contour>
    <contour>
      <point x="3973" y="781" type="line"/>
      <point x="3973" y="921" type="line"/>
      <point x="1222" y="921" type="line"/>
      <point x="1222" y="781" type="line"/>
    </contour>
    <contour>
      <point x="1226" y="785" type="line"/>
      <point x="1226" y="917" type="line"/>
      <point x="3969" y="917" type="line"/>
      <point x="3969" y="785" type="line"/>
    </contour>
  </outline>
</glyph>
<glyph name="V" format="2">
  <advance width="4861"/>
  <unicode hex="0056"/>
  <outline>
    <contour>
      <point x="4396" y="2" type="line"/>
      <point x="4382" y="2" type="line"/>
      <point x="4727" y="382" type="line"/>
      <point x="4727" y="1452" type="line"/>
      <point x="3968" y="1452" type="line"/>
      <point x="3968" y="1605" type="line"/>
      <point x="3814" y="1451" type="line"/>
      <point x="3814" y="573" type="line"/>
      <point x="3629" y="382" type="line"/>
      <point x="1073" y="382" type="line"/>
      <point x="1073" y="1452" type="line"/>
      <point x="313" y="1452" type="line"/>
      <point x="313" y="1605" type="line"/>
      <point x="159" y="1451" type="line"/>
      <point x="159" y="-152" type="line"/>
      <point x="4242" y="-152" type="line"/>
    </contour>
    <contour>
      <point x="3964" y="1448" type="line"/>
      <point x="4723" y="1448" type="line"/>
      <point x="4723" y="384" type="line"/>
      <point x="4372" y="-2" type="line"/>
      <point x="4386" y="-2" type="line"/>
      <point x="4240" y="-148" type="line"/>
      <point x="163" y="-148" type="line"/>
      <point x="163" y="1449" type="line"/>
      <point x="309" y="1595" type="line"/>
      <point x="309" y="1448" type="line"/>
      <point x="1069" y="1448" type="line"/>
      <point x="1069" y="378" type="line"/>
      <point x="3631" y="378" type="line"/>
      <point x="3818" y="571" type="line"/>
      <point x="3818" y="1449" type="line"/>
      <point x="3964" y="1595" type="line"/>
    </contour>
  </outline>
</glyph>
<glyph name="Y" format="2">
  <advance width="5106"/>
  <unicode hex="0059"/>
  <outline>
    <contour>
      <point x="1223" y="1602" type="line"/>
      <point x="311" y="1602" type="line"/>
      <point x="160" y="1451" type="line"/>
      <point x="160" y="499" type="line"/>
      <point x="273" y="499" type="line"/>
      <point x="162" y="388" type="line"/>
      <point x="162" y="-152" type="line"/>
      <point x="4815" y="-152" type="line"/>
      <point x="4966" y="-1" type="line"/>
      <point x="4966" y="1602" type="line"/>
      <point x="4054" y="1602" type="line"/>
      <point x="3903" y="1451" type="line"/>
      <point x="3903" y="1143" type="line"/>
      <point x="1223" y="1143" type="line"/>
    </contour>
    <contour>
      <point x="283" y="503" type="line"/>
      <point x="164" y="503" type="line"/>
      <point x="164" y="1449" type="line"/>
      <point x="313" y="1598" type="line"/>
      <point x="1219" y="1598" type="line"/>
      <point x="1219" y="1139" type="line"/>
      <point x="3907" y="1139" type="line"/>
      <point x="3907" y="1449" type="line"/>
      <point x="4056" y="1598" type="line"/>
      <point x="4962" y="1598" type="line"/>
      <point x="4962" y="1" type="line"/>
      <point x="4813" y="-148" type="line"/>
      <point x="166" y="-148" type="line"/>
      <point x="166" y="386" type="line"/>
    </contour>
    <contour>
      <point x="3907" y="488" type="line"/>
      <point x="3907" y="503" type="line"/>
      <point x="1221" y="503" type="line"/>
      <point x="1221" y="488" type="line"/>
    </contour>
    <contour>
      <point x="1225" y="492" type="line"/>
      <point x="1225" y="499" type="line"/>
      <point x="3903" y="499" type="line"/>
      <point x="3903" y="492" type="line"/>
    </contour>
  </outline>
</glyph>
<glyph name="I.narrow" format="2">
  <advance width="1397"/>
  <outline>
    <contour>
      <point x="176" y="1453" type="line"/>
      <point x="176" y="-152" type="line"/>
      <point x="1089" y="-152" type="line"/>
      <point x="1240" y="-1" type="line"/>
      <point x="1240" y="1604" type="line"/>
      <point x="327" y="1604" type="line"/>
    </contour>
    <contour>
      <point x="180" y="-148" type="line"/>
      <point x="180" y="1451" type="line"/>
      <point x="329" y="1600" type="line"/>
      <point x="1236" y="1600" type="line"/>
      <point x="1236" y="1" type="line"/>
      <point x="1087" y="-148" type="line"/>
    </contour>
  </outline>
</glyph>
<glyph name="L.wide" format="2">
  <advance width="4149"/>
  <outline>
    <contour>
      <point x="4133" y="-1" type="line"/>
      <point x="4133" y="532" type="line"/>
      <point x="971" y="532" type="line"/>
      <point x="971" y="1602" type="line"/>
      <point x="59" y="1602" type="line"/>
      <point x="-92" y="1451" type="line"/>
      <point x="-92" y="-152" type="line"/>
      <point x="3982" y="-152" type="line"/>
    </contour>
    <contour>
      <point x="967" y="528" type="line"/>
      <point x="4129" y="528" type="line"/>
      <point x="4129" y="1" type="line"/>
      <point x="3980" y="-148" type="line"/>
      <point x="-88" y="-148" type="line"/>
      <point x="-88" y="1449" type="line"/>
      <point x="61" y="1598" type="line"/>
      <point x="967" y="1598" type="line"/>
    </contour>
  </outline>
</glyph>
<glyph name="P.wide" format="2">
  <advance width="5018"/>
  <outline>
    <contour>
      <point x="1032" y="-152" type="line"/>
      <point x="1183" y="-1" type="line"/>
      <point x="1183" y="198" type="line"/>
      <point x="4836" y="198" type="line"/>
      <point x="4987" y="349" type="line"/>
      <point x="4987" y="1602" type="line"/>
      <point x="271" y="1602" type="line"/>
      <point x="120" y="1451" type="line"/>
      <point x="120" y="-152" type="line"/>
    </contour>
    <contour>
      <point x="1179" y="202" type="line"/>
      <point x="1179" y="1" type="line"/>
      <point x="1030" y="-148" type="line"/>
      <point x="124" y="-148" type="line"/>
      <point x="124" y="1449" type="line"/>
      <point x="273" y="1598" type="line"/>
      <point x="4983" y="1598" type="line"/>
      <point x="4983" y="351" type="line"/>
      <point x="4834" y="202" type="line"/>
    </contour>
    <contour>
      <point x="3928" y="885" type="line"/>
      <point x="3928" y="922" type="line"/>
      <point x="1179" y="922" type="line"/>
      <point x="1179" y="885" type="line"/>
    </contour>
    <contour>
      <point x="1183" y="889" type="line"/>
      <point x="1183" y="918" type="line"/>
      <point x="3924" y="918" type="line"/>
      <point x="3924" y="889" type="line"/>
    </contour>
  </outline>
</glyph>
<glyph name="R.wide" format="2">
  <advance width="5044"/>
  <outline>
    <contour>
      <point x="1072" y="-154" type="line"/>
      <point x="1223" y="-3" type="line"/>
      <point x="1223" y="119" type="line"/>
      <point x="3384" y="119" type="line"/>
      <point x="3801" y="-152" type="line"/>
      <point x="4713" y="-152" type="line"/>
      <point x="4865" y="0" type="line"/>
      <point x="4659" y="119" type="line"/>
      <point x="4878" y="119" type="line"/>
      <point x="5029" y="270" type="line"/>
      <point x="5029" y="1600" type="line"/>
      <point x="311" y="1600" type="line"/>
      <point x="160" y="1449" type="line"/>
      <point x="160" y="-154" type="line"/>
    </contour>
    <contour>
      <point x="4645" y="123" type="line"/>
      <point x="4859" y="0" type="line"/>
      <point x="4711" y="-148" type="line"/>
      <point x="3803" y="-148" type="line"/>
      <point x="3386" y="123" type="line"/>
      <point x="1219" y="123" type="line"/>
      <point x="1219" y="-1" type="line"/>
      <point x="1070" y="-150" type="line"/>
      <point x="164" y="-150" type="line"/>
      <point x="164" y="1447" type="line"/>
      <point x="313" y="1596" type="line"/>
      <point x="5025" y="1596" type="line"/>
      <point x="5025" y="272" type="line"/>
      <point x="4876" y="123" type="line"/>
    </contour>
    <contour>
      <point x="3970" y="799" type="line"/>
      <point x="3970" y="921" type="line"/>
      <point x="1219" y="921" type="line"/>
      <point x="1219" y="799" type="line"/>
    </contour>
    <contour>
      <point x="1223" y="803" type="line"/>
      <point x="1223" y="917" type="line"/>
      <point x="3966" y="917" type="line"/>
      <point x="3966" y="803" type="line"/>
    </contour>
  </outline>
</glyph>
<glyph name="Y.wide" format="2">
  <advance width="4874"/>
  <outline>
    <contour>
      <point x="4805" y="-1" type="line"/>
      <point x="4805" y="1602" type="line"/>
      <point x="3893" y="1602" type="line"/>
      <point x="3742" y="1451" type="line"/>
      <point x="3742" y="1097" type="line"/>
      <point x="1138" y="1097" type="line"/>
      <point x="1138" y="1602" type="line"/>
      <point x="226" y="1602" type="line"/>
      <point x="75" y="1451" type="line"/>
      <point x="75" y="445" type="line"/>
      <point x="173" y="445" type="line"/>
      <point x="78" y="350" type="line"/>
      <point x="78" y="-152" type="line"/>
      <point x="4654" y="-152" type="line"/>
    </contour>
    <contour>
      <point x="183" y="449" type="line"/>
      <point x="79" y="449" type="line"/>
      <point x="79" y="1449" type="line"/>
      <point x="228" y="1598" type="line"/>
      <point x="1134" y="1598" type="line"/>
      <point x="1134" y="1093" type="line"/>
      <point x="3746" y="1093" type="line"/>
      <point x="3746" y="1449" type="line"/>
      <point x="3895" y="1598" type="line"/>
      <point x="4801" y="1598" type="line"/>
      <point x="4801" y="1" type="line"/>
      <point x="4652" y="-148" type="line"/>
      <point x="82" y="-148" type="line"/>
      <point x="82" y="348" type="line"/>
    </contour>
  </outline>
</glyph>
<glyph name="Z.wide" format="2">
  <advance width="5185"/>
  <outline>
    <contour>
      <point x="5162" y="-1" type="line"/>
      <point x="5162" y="491" type="line"/>
      <point x="3640" y="491" type="line"/>
      <point x="5019" y="594" type="line"/>
      <point x="5170" y="745" type="line"/>
      <point x="5170" y="1602" type="line"/>
      <point x="216" y="1602" type="line"/>
      <point x="65" y="1451" type="line"/>
      <point x="65" y="958" type="line"/>
      <point x="1153" y="958" type="line"/>
      <point x="180" y="886" type="line"/>
      <point x="29" y="735" type="line"/>
      <point x="29" y="-152" type="line"/>
      <point x="5011" y="-152" type="line"/>
    </contour>
    <contour>
      <point x="1217" y="959" type="line"/>
      <point x="1217" y="962" type="line"/>
      <point x="69" y="962" type="line"/>
      <point x="69" y="1449" type="line"/>
      <point x="218" y="1598" type="line"/>
      <point x="5166" y="1598" type="line"/>
      <point x="5166" y="747" type="line"/>
      <point x="5017" y="598" type="line"/>
      <point x="3576" y="490" type="line"/>
      <point x="3576" y="487" type="line"/>
      <point x="5158" y="487" type="line"/>
      <point x="5158" y="1" type="line"/>
      <point x="5009" y="-148" type="line"/>
      <point x="33" y="-148" type="line"/>
      <point x="33" y="733" type="line"/>
      <point x="182" y="882" type="line"/>
    </contour>
  </outline>
</glyph>
<glyph name="five.wide" format="2">
  <advance width="5142"/>
  <outline>
    <contour>
      <point x="5121" y="1602" type="line"/>
      <point x="193" y="1602" type="line"/>
      <point x="42" y="1451" type="line"/>
      <point x="42" y="412" type="line"/>
      <point x="105" y="412" type="line"/>
      <point x="43" y="350" type="line"/>
      <point x="43" y="-152" type="line"/>
      <point x="4969" y="-152" type="line"/>
      <point x="5120" y="-1" type="line"/>
      <point x="5120" y="1038" type="line"/>
      <point x="5059" y="1038" type="line"/>
      <point x="5121" y="1100" type="line"/>
    </contour>
    <contour>
      <point x="115" y="416" type="line"/>
      <point x="46" y="416" type="line"/>
      <point x="46" y="1449" type="line"/>
      <point x="195" y="1598" type="line"/>
      <point x="5117" y="1598" type="line"/>
      <point x="5117" y="1102" type="line"/>
      <point x="5049" y="1034" type="line"/>
      <point x="5116" y="1034" type="line"/>
      <point x="5116" y="1" type="line"/>
      <point x="4967" y="-148" type="line"/>
      <point x="47" y="-148" type="line"/>
      <point x="47" y="348" type="line"/>
    </contour>
  </outline>
</glyph>
<glyph name="nine.wide" format="2">
  <advance width="4806"/>
  <outline>
    <contour>
      <point x="4991" y="1602" type="line"/>
      <point x="30" y="1602" type="line"/>
      <point x="-121" y="1451" type="line"/>
      <point x="-121" y="412" type="line"/>
      <point x="-58" y="412" type="line"/>
      <point x="-120" y="350" type="line"/>
      <point x="-120" y="-152" type="line"/>
      <point x="4840" y="-152" type="line"/>
      <point x="4991" y="-1" type="line"/>
    </contour>
    <contour>
      <point x="-48" y="416" type="line"/>
      <point x="-117" y="416" type="line"/>
      <point x="-117" y="1449" type="line"/>
      <point x="32" y="1598" type="line"/>
      <point x="4987" y="1598" type="line"/>
      <point x="4987" y="1" type="line"/>
      <point x="4838" y="-148" type="line"/>
      <point x="-116" y="-148" type="line"/>
      <point x="-116" y="348" type="line"/>
    </contour>
  </outline>
</glyph>
<glyph name="seven.alt" format="2">
  <advance width="4421"/>
  <outline>
    <contour>
      <point x="944" y="506" type="line"/>
      <point x="1098" y="660" type="line"/>
      <point x="945" y="660" type="line"/>
      <point x="944" y="918" type="line"/>
      <point x="3442" y="918" type="line"/>
      <point x="3442" y="-152" type="line"/>
      <point x="4355" y="-152" type="line"/>
      <point x="4509" y="2" type="line"/>
      <point x="4356" y="2" type="line"/>
      <point x="4356" y="1452" type="line"/>
      <point x="254" y="1452" type="line"/>
      <point x="254" y="1605" type="line"/>
      <point x="100" y="1451" type="line"/>
      <point x="100" y="506" type="line"/>
    </contour>
    <contour>
      <point x="3446" y="922" type="line"/>
      <point x="940" y="922" type="line"/>
      <point x="941" y="656" type="line"/>
      <point x="1088" y="656" type="line"/>
      <point x="942" y="510" type="line"/>
      <point x="104" y="510" type="line"/>
      <point x="104" y="1449" type="line"/>
      <point x="250" y="1595" type="line"/>
      <point x="250" y="1448" type="line"/>
      <point x="4352" y="1448" type="line"/>
      <point x="4352" y="-2" type="line"/>
      <point x="4499" y="-2" type="line"/>
      <point x="4353" y="-148" type="line"/>
      <point x="3446" y="-148" type="line"/>
    </contour>
  </outline>
</glyph>
<glyph name="six.wide" format="2">
  <advance width="4829"/>
  <outline>
    <contour>
      <point x="531" y="1602" type="line"/>
      <point x="41" y="1316" type="line"/>
      <point x="-110" y="1165" type="line"/>
      <point x="-110" y="-152" type="line"/>
      <point x="4810" y="-152" type="line"/>
      <point x="4961" y="-1" type="line"/>
      <point x="4961" y="1035" type="line"/>
      <point x="4895" y="1035" type="line"/>
      <point x="4960" y="1100" type="line"/>
      <point x="4960" y="1602" type="line"/>
    </contour>
    <contour>
      <point x="4885" y="1031" type="line"/>
      <point x="4957" y="1031" type="line"/>
      <point x="4957" y="1" type="line"/>
      <point x="4808" y="-148" type="line"/>
      <point x="-106" y="-148" type="line"/>
      <point x="-106" y="1163" type="line"/>
      <point x="43" y="1312" type="line"/>
      <point x="533" y="1598" type="line"/>
      <point x="4956" y="1598" type="line"/>
      <point x="4956" y="1102" type="line"/>
    </contour>
  </outline>
</glyph>
